<svg width="287" height="260" viewBox="0 0 287 260" fill="none" xmlns="http://www.w3.org/2000/svg">
<g clip-path="url(#clip0)">
<path d="M94 163.5C93.9828 176.563 96.627 189.493 101.771 201.5L102.091 202.237C110.793 222.034 125.882 238.34 144.945 248.55C164.008 258.759 185.944 262.281 207.245 258.552C207.824 258.45 208.403 258.343 208.981 258.233C214.95 257.076 220.795 255.352 226.436 253.085C227.353 252.717 228.263 252.335 229.166 251.94C229.782 251.672 230.399 251.395 231.01 251.109C247.724 243.363 261.874 231 271.794 215.478C281.714 199.956 286.99 181.921 287 163.5C287 110.205 243.795 67 190.5 67C137.205 67 94 110.205 94 163.5Z" fill="#37E290"/>
<path opacity="0.2" d="M207.245 258.553C207.824 258.45 208.403 258.343 208.981 258.233C209.358 247.295 210.651 224.846 215.062 201.335C217.474 188.467 220.823 175.277 225.469 163.486C227.06 159.406 228.878 155.418 230.913 151.54C235.607 142.675 241.3 135.212 248.203 130.156L247.187 128.769C241.445 132.977 236.285 138.885 231.707 146.493C230.333 148.771 229.014 151.201 227.75 153.784C226.394 156.548 225.1 159.482 223.87 162.586C223.085 164.562 222.326 166.606 221.594 168.719C218.408 177.892 215.7 188.359 213.469 200.119C212.975 202.717 212.505 205.379 212.058 208.104C208.601 229.223 207.559 248.748 207.245 258.553Z" fill="black"/>
<path opacity="0.2" d="M229.166 251.94C229.782 251.672 230.399 251.395 231.01 251.109C231.607 244.629 232.703 236.589 234.707 228.957C235.585 225.53 236.712 222.171 238.079 218.908C240.366 213.554 243.327 209.003 247.155 206.197L246.139 204.812C242.13 207.747 239.038 212.387 236.649 217.814C233.956 223.93 232.161 231.047 230.964 237.848C230.076 242.898 229.517 247.778 229.166 251.94Z" fill="black"/>
<path opacity="0.2" d="M257.804 130.116C253.06 130.116 249.214 126.27 249.214 121.526C249.214 116.782 253.06 112.935 257.804 112.935C262.548 112.935 266.394 116.782 266.394 121.526C266.394 126.27 262.548 130.116 257.804 130.116Z" fill="black"/>
<path opacity="0.2" d="M255.038 204.064C250.293 204.064 246.447 200.218 246.447 195.474C246.447 190.729 250.293 186.883 255.038 186.883C259.782 186.883 263.628 190.729 263.628 195.474C263.628 200.218 259.782 204.064 255.038 204.064Z" fill="black"/>
<path opacity="0.2" d="M223.7 135.955C225.521 146.232 221.5 155.538 221.5 155.538C221.5 155.538 214.525 148.181 212.704 137.904C210.882 127.627 214.903 118.321 214.903 118.321C214.903 118.321 221.878 125.678 223.7 135.955Z" fill="black"/>
<path opacity="0.2" d="M252.249 160.351C242.447 163.936 232.596 161.635 232.596 161.635C232.596 161.635 238.639 153.524 248.442 149.939C258.245 146.355 268.095 148.655 268.095 148.655C268.095 148.655 262.052 156.767 252.249 160.351Z" fill="black"/>
<path opacity="0.2" d="M253.911 225.835C247.041 228.347 240.126 226.708 240.126 226.708C240.126 226.708 244.352 220.996 251.223 218.483C258.094 215.971 265.008 217.61 265.008 217.61C265.008 217.61 260.782 223.322 253.911 225.835Z" fill="black"/>
<path d="M190.698 184.87C169.921 184.87 153.077 168.026 153.077 147.249C153.077 126.471 169.921 109.628 190.698 109.628C211.475 109.628 228.319 126.471 228.319 147.249C228.319 168.026 211.475 184.87 190.698 184.87Z" fill="#D0CDE1"/>
<path d="M205.394 176.052C205.394 176.052 200.691 198.39 200.691 200.741C200.691 203.092 178.354 213.673 178.354 213.673L158.368 210.146L151.314 188.984C151.314 188.984 163.07 171.35 163.07 164.296L205.394 176.052Z" fill="#D0CDE1"/>
<path d="M101.771 201.5L102.091 202.237C110.793 222.034 125.882 238.34 144.945 248.55C164.008 258.759 185.944 262.281 207.245 258.552C207.824 258.45 208.403 258.343 208.981 258.233C214.95 257.076 220.795 255.352 226.436 253.085C227.353 252.717 228.263 252.335 229.166 251.94C229.782 251.672 230.399 251.395 231.01 251.109C236.548 248.544 241.83 245.458 246.784 241.893L251.244 228.957L248.737 227.044L243.581 223.107L238.079 218.908L236.649 217.814L215.062 201.335L213.469 200.119L202.248 191.554L202.246 191.551C202.246 191.551 190.112 211.322 172.476 205.443C154.841 199.565 155.226 182.709 155.226 182.709L101.771 201.5Z" fill="#2F2E41"/>
<path d="M223.323 116.939C223.323 116.939 211.378 91.0594 188.485 97.0316C165.591 103.004 152.652 111.962 151.656 120.921C150.661 129.879 152.154 143.316 152.154 143.316C152.154 143.316 154.642 124.902 170.568 128.883C186.494 132.865 211.378 129.879 211.378 129.879L215.36 165.712C215.36 165.712 219.839 159.242 224.816 163.224C229.793 167.205 239.249 124.902 223.323 116.939Z" fill="#2F2E41"/>
<path d="M226.436 253.085C227.353 252.717 228.263 252.335 229.166 251.94C229.782 251.672 230.399 251.395 231.01 251.109C240.169 246.862 248.607 241.207 256.017 234.35C253.394 230.776 251.244 228.957 251.244 228.957H233.608L230.964 237.848L226.436 253.085Z" fill="#2F2E41"/>
<path d="M117.22 199.565L102.091 202.237C106.14 211.46 111.608 219.993 118.296 227.524L117.22 199.565Z" fill="#2F2E41"/>
</g>
<g clip-path="url(#clip1)">
<path d="M160 80C160.012 90.277 158.039 100.46 154.189 109.988C154.179 110.009 154.172 110.028 154.163 110.05V110.052C151.575 116.432 148.171 122.45 144.035 127.955C143.237 129.02 142.415 130.063 141.566 131.084C141.256 131.458 140.942 131.83 140.627 132.196C139.006 134.078 137.3 135.881 135.51 137.605C135.093 138.007 134.672 138.405 134.246 138.798C134.146 138.89 134.047 138.98 133.948 139.072C131.862 140.977 129.678 142.771 127.403 144.445C125.877 145.574 124.31 146.646 122.703 147.662C122.35 147.886 121.995 148.107 121.637 148.324C121.017 148.703 120.392 149.073 119.761 149.434C118.937 149.908 118.103 150.366 117.259 150.809C116.918 150.992 116.575 151.167 116.232 151.342C115.73 151.6 115.226 151.849 114.717 152.092C114.629 152.135 114.542 152.178 114.454 152.218C114.123 152.379 113.787 152.535 113.45 152.691C109.073 154.71 104.521 156.325 99.8505 157.517C99.8245 157.524 99.8008 157.529 99.7748 157.536C99.4694 157.614 99.1617 157.69 98.854 157.763C98.6245 157.82 98.3925 157.875 98.1606 157.927C98.1319 157.936 98.1027 157.943 98.073 157.948C97.5972 158.059 97.1215 158.166 96.641 158.263C96.3712 158.32 96.1014 158.376 95.8316 158.431C95.6683 158.466 95.5026 158.497 95.3393 158.528C95.1333 158.568 94.9298 158.606 94.7239 158.646C94.6103 158.67 94.4967 158.689 94.3807 158.708C94.1203 158.755 93.86 158.802 93.602 158.847C93.1617 158.923 92.7168 158.996 92.2742 159.063C91.9523 159.112 91.6327 159.16 91.3108 159.205C90.9321 159.259 90.5535 159.309 90.1724 159.356C90.0682 159.373 89.9641 159.385 89.86 159.396C89.7251 159.413 89.5902 159.43 89.4552 159.446C89.183 159.479 88.9109 159.51 88.6363 159.538C88.4943 159.555 88.3546 159.569 88.2126 159.583C87.9428 159.612 87.673 159.638 87.4032 159.662C87.0552 159.695 86.7073 159.723 86.357 159.751C85.931 159.785 85.5073 159.815 85.0789 159.841C84.8043 159.858 84.5298 159.875 84.2529 159.889C83.5475 159.927 82.8422 159.953 82.1322 159.972C81.7795 159.981 81.4245 159.988 81.0694 159.993H81.0623C80.7097 159.998 80.3546 160 79.9996 160C76.4017 160.002 72.8078 159.761 69.2422 159.28C66.6268 158.93 64.0533 158.455 61.5215 157.856C61.4197 157.832 61.318 157.808 61.2186 157.782C60.9629 157.723 60.7097 157.659 60.4564 157.595C60.2316 157.538 60.0091 157.479 59.7842 157.42C53.9893 155.912 48.3836 153.753 43.0742 150.985C43.0481 150.97 43.0197 150.956 42.9937 150.942C42.8398 150.862 42.6884 150.783 42.5369 150.701C42.2032 150.525 41.871 150.347 41.5404 150.166C39.6588 149.131 37.8253 148.025 36.0398 146.847C35.5807 146.547 35.1262 146.241 34.6765 145.931C34.5322 145.832 34.3901 145.733 34.2481 145.633C34.099 145.529 33.9499 145.425 33.8032 145.321C33.4126 145.044 33.0245 144.764 32.6387 144.48C31.041 143.307 29.4907 142.075 27.9878 140.786C22.6606 136.223 17.9532 130.984 13.9854 125.2C12.6008 123.183 11.3085 121.102 10.1085 118.956C3.45832 107.051 -0.0225054 93.6368 -0.000383492 80C-0.000383492 35.8178 35.8174 0 79.9996 0C124.182 0 160 35.8178 160 80Z" fill="#0099C9"/>
<path opacity="0.2" d="M92.8638 157.782C93.1194 157.723 93.3727 157.659 93.6259 157.595C93.8508 157.538 94.0732 157.479 94.2981 157.42C94.3099 156.949 94.3265 156.431 94.3431 155.87C94.4827 151.477 94.8117 144.405 95.588 135.884C95.6306 135.427 95.6732 134.967 95.7159 134.504C95.9928 131.617 96.317 128.58 96.7052 125.432C96.717 125.328 96.7312 125.226 96.7431 125.122C97.0579 122.57 97.4153 119.95 97.8176 117.28C98.0993 115.413 98.4038 113.525 98.7312 111.617C98.7549 111.484 98.7786 111.349 98.8022 111.217C98.8969 110.665 98.9939 110.116 99.0934 109.562C99.3703 108.021 99.6661 106.471 99.9762 104.921C101.067 99.4675 102.367 93.9811 103.917 88.6438C105.492 83.1086 107.431 77.6837 109.723 72.4047C111.5 68.3039 113.617 64.3588 116.052 60.6107C116.087 60.5562 116.123 60.5041 116.158 60.4497C119.271 55.761 122.828 51.7823 126.89 48.8071L126.047 47.6568C122.156 50.5089 118.587 54.3038 115.34 59.0414C115.323 59.0651 115.309 59.0864 115.292 59.1101C112.85 62.7312 110.719 66.5523 108.921 70.5326C106.513 75.8565 104.482 81.343 102.842 86.9515C101.29 92.1633 99.8973 97.8099 98.665 103.891C98.2318 106.033 97.8184 108.228 97.4247 110.476C97.3584 110.859 97.2922 111.243 97.2259 111.628C97.2259 111.633 97.2235 111.64 97.2235 111.645C97.1218 112.237 97.0247 112.828 96.9253 113.427C96.6792 114.935 96.4472 116.431 96.2295 117.915C95.8934 120.201 95.5896 122.448 95.3182 124.656C95.2283 125.385 95.1415 126.108 95.0579 126.826C94.9395 127.839 94.8275 128.839 94.7218 129.825C94.5727 131.198 94.4362 132.541 94.3123 133.856L94.2768 134.218C94.2579 134.426 94.2389 134.634 94.22 134.84C93.259 145.205 92.9584 153.576 92.8638 157.782Z" fill="black"/>
<path opacity="0.2" d="M111.008 150.985C111.034 150.97 111.063 150.956 111.089 150.942C111.576 150.689 112.059 150.431 112.542 150.166C112.701 148.277 112.914 146.201 113.193 144.019C113.252 143.569 113.311 143.112 113.378 142.653C113.411 142.407 113.446 142.159 113.482 141.908C113.761 139.986 114.092 138.002 114.49 136.009C116.107 127.877 118.791 119.564 123.247 114.433C123.486 114.156 123.73 113.891 123.983 113.633C124.611 112.981 125.293 112.383 126.021 111.846L125.179 110.698C124.162 111.45 123.226 112.306 122.386 113.252C122.09 113.581 121.801 113.923 121.52 114.279C117.418 119.441 114.857 127.084 113.262 134.651C112.845 136.625 112.495 138.596 112.196 140.516C112.121 141.018 112.048 141.515 111.979 142.007C111.517 145.259 111.212 148.331 111.008 150.985Z" fill="black"/>
<path opacity="0.2" d="M134.849 48.774C138.782 48.774 141.971 45.5856 141.971 41.6525C141.971 37.7193 138.782 34.5309 134.849 34.5309C130.916 34.5309 127.728 37.7193 127.728 41.6525C127.728 45.5856 130.916 48.774 134.849 48.774Z" fill="black"/>
<path opacity="0.2" d="M132.556 110.078C136.489 110.078 139.677 106.89 139.677 102.956C139.677 99.0233 136.489 95.8349 132.556 95.8349C128.623 95.8349 125.434 99.0233 125.434 102.956C125.434 106.89 128.623 110.078 132.556 110.078Z" fill="black"/>
<path opacity="0.2" d="M106.576 53.6145C108.087 62.1346 104.753 69.8494 104.753 69.8494C104.753 69.8494 98.9706 63.7504 97.4604 55.2303C95.9503 46.7102 99.284 38.9955 99.284 38.9955C99.284 38.9955 105.066 45.0944 106.576 53.6145Z" fill="black"/>
<path opacity="0.2" d="M130.244 73.8393C122.118 76.8109 113.952 74.9039 113.952 74.9039C113.952 74.9039 118.961 68.179 127.088 65.2074C135.215 62.2358 143.381 64.1428 143.381 64.1428C143.381 64.1428 138.371 70.8677 130.244 73.8393Z" fill="black"/>
<path opacity="0.2" d="M131.623 128.126C125.926 130.209 120.195 128.85 120.195 128.85C120.195 128.85 123.698 124.115 129.394 122.032C135.09 119.949 140.822 121.308 140.822 121.308C140.822 121.308 137.319 126.043 131.623 128.126Z" fill="black"/>
<path d="M104.133 126.928L104.421 127.077C104.393 127.385 104.324 127.574 104.133 126.928Z" fill="#2F2E41"/>
<path d="M104.513 127.027C104.516 127.06 104.521 127.096 104.523 127.129L104.421 127.077C104.424 127.046 104.426 127.013 104.431 126.98C104.454 126.566 104.426 126.076 104.513 127.027Z" fill="#2F2E41"/>
<path d="M73.7711 115.704C95.2362 115.704 112.637 98.3032 112.637 76.8381C112.637 55.373 95.2362 37.972 73.7711 37.972C52.3059 37.972 34.905 55.373 34.905 76.8381C34.905 98.3032 52.3059 115.704 73.7711 115.704Z" fill="#2F2E41"/>
<path d="M76.9705 114.12C89.9697 114.12 100.508 103.582 100.508 90.5829C100.508 77.5837 89.9697 67.0457 76.9705 67.0457C63.9713 67.0457 53.4333 77.5837 53.4333 90.5829C53.4333 103.582 63.9713 114.12 76.9705 114.12Z" fill="#D0CDE1"/>
<path d="M130.715 135.695L130.686 135.702L125.212 137.015L113.813 139.751L112.258 140.125L94.9232 144.284L93.451 144.639L51.3942 154.731C48.5511 153.644 45.7733 152.393 43.0747 150.985C43.0486 150.97 43.0202 150.956 42.9942 150.942C42.8403 150.862 42.6889 150.783 42.5374 150.701C42.2037 150.525 41.8715 150.347 41.5409 150.166C39.6593 149.131 37.8257 148.025 36.0403 146.847C35.5812 146.547 35.1267 146.241 34.677 145.931C34.5327 145.832 34.3906 145.733 34.2486 145.633C34.0995 145.529 33.9504 145.425 33.8037 145.321C33.4131 145.044 33.025 144.764 32.6392 144.48C36.7244 137.056 46.4522 132.121 56.18 129.42C63.522 127.38 65.1362 120.675 64.9965 114.708C64.961 113.347 64.8457 111.989 64.651 110.641C64.3544 108.497 63.8826 106.38 63.2403 104.312L86.7788 105.098L89.2072 110.693C89.1407 111.308 89.1194 111.927 89.1433 112.544C89.3279 117.134 92.1611 120.102 95.6569 122.017C96.1113 122.265 96.5776 122.497 97.051 122.712C102.784 125.318 109.531 125.496 109.531 125.496C111.586 125.269 113.662 125.308 115.707 125.612C116.204 125.688 116.686 125.778 117.155 125.884C119.891 126.496 122.476 127.652 124.755 129.285C125.626 129.904 126.449 130.587 127.219 131.328C128.587 132.609 129.765 134.079 130.715 135.695Z" fill="#D0CDE1"/>
<path d="M134.246 138.798C134.147 138.89 134.047 138.98 133.948 139.072C131.863 140.977 129.678 142.771 127.403 144.445C125.877 145.574 124.31 146.646 122.703 147.662C122.35 147.886 121.995 148.107 121.638 148.324C121.018 148.703 120.392 149.073 119.761 149.434C118.937 149.908 118.103 150.366 117.259 150.809C116.918 150.992 116.575 151.167 116.232 151.342C115.73 151.6 115.226 151.849 114.717 152.092C114.629 152.135 114.542 152.178 114.454 152.218L113.453 151.387L125.212 137.015L127.576 134.125C127.576 134.125 128.521 134.125 130.686 135.702C131.883 136.593 133.014 137.569 134.071 138.622C134.128 138.682 134.187 138.738 134.246 138.798Z" fill="#D0CDE1"/>
<path d="M134.081 138.637C134.049 138.785 134.004 138.931 133.948 139.072C131.863 140.977 129.678 142.771 127.404 144.445C125.43 145.156 123.382 145.643 121.299 145.896C121.299 145.896 121.477 146.786 121.638 148.324C121.018 148.703 120.392 149.073 119.761 149.434C118.937 149.908 118.103 150.366 117.259 150.809C116.918 150.992 116.575 151.167 116.232 151.342C115.73 151.6 115.226 151.849 114.717 152.092C114.63 152.135 114.542 152.178 114.455 152.218C114.123 152.379 113.787 152.535 113.451 152.691C109.074 154.71 104.522 156.325 99.851 157.517C99.8249 157.524 99.8013 157.529 99.7752 157.536C99.4699 157.614 99.1622 157.69 98.8545 157.763C98.6249 157.82 98.393 157.875 98.161 157.927C98.1324 157.936 98.1031 157.943 98.0734 157.948C97.5977 158.059 97.122 158.166 96.6415 158.263C96.3717 158.32 96.1019 158.376 95.832 158.431C95.6687 158.466 95.503 158.497 95.3397 158.528C95.1338 158.568 94.9303 158.606 94.7243 158.646C94.6107 158.67 94.4971 158.689 94.3811 158.708C94.1208 158.755 93.8604 158.802 93.6024 158.847C93.1622 158.923 92.7172 158.996 92.2746 159.063C91.9527 159.112 91.6332 159.16 91.3113 159.205C90.9326 159.259 90.5539 159.309 90.1729 159.356C90.0687 159.373 89.9646 159.385 89.8604 159.396C89.7255 159.413 89.5906 159.43 89.4557 159.446C89.1835 159.479 88.9113 159.51 88.6368 159.538C88.4948 159.555 88.3551 159.569 88.2131 159.583C87.9433 159.612 87.6735 159.638 87.4036 159.662C87.0557 159.695 86.7078 159.723 86.3575 159.751C85.9314 159.785 85.5078 159.815 85.0794 159.841C84.8048 159.858 84.5302 159.875 84.2533 159.889C83.548 159.927 82.8427 159.953 82.1326 159.972C81.78 159.981 81.4249 159.988 81.0699 159.993H81.0628C80.7101 159.998 80.3551 160 80.0001 160C76.4022 160.001 72.8083 159.761 69.2427 159.28C66.6273 158.93 64.0537 158.455 61.522 157.856C61.4202 157.832 61.3184 157.808 61.219 157.782C60.9634 157.723 60.7101 157.659 60.4569 157.595C60.232 157.538 60.0096 157.479 59.7847 157.42C53.9898 155.912 48.3841 153.753 43.0746 150.985C43.0486 150.97 43.0202 150.956 42.9942 150.942C42.8403 150.862 42.6888 150.783 42.5374 150.701C55.5291 147.673 76.0592 142.899 93.8746 138.809C94.374 138.696 94.8703 138.582 95.3634 138.469C101.943 136.959 108.107 135.553 113.321 134.376C113.86 134.256 114.389 134.137 114.907 134.021C120.509 132.762 124.859 131.806 127.219 131.328C127.855 131.182 128.498 131.07 129.146 130.989L134.071 138.622L134.081 138.637Z" fill="#2F2E41"/>
<path d="M38.2129 60.2993C44.6067 60.2993 49.79 55.1161 49.79 48.7222C49.79 42.3284 44.6067 37.1451 38.2129 37.1451C31.819 37.1451 26.6357 42.3284 26.6357 48.7222C26.6357 55.1161 31.819 60.2993 38.2129 60.2993Z" fill="#2F2E41"/>
<path d="M109.329 56.9916C115.723 56.9916 120.906 51.8083 120.906 45.4145C120.906 39.0206 115.723 33.8374 109.329 33.8374C102.935 33.8374 97.7522 39.0206 97.7522 45.4145C97.7522 51.8083 102.935 56.9916 109.329 56.9916Z" fill="#2F2E41"/>
<path d="M96.9255 40.4529C96.9259 37.5975 97.9815 34.843 99.8895 32.7186C101.798 30.5943 104.423 29.25 107.262 28.9442C105.645 28.7676 104.01 28.9336 102.461 29.4314C100.913 29.9293 99.4869 30.7478 98.2761 31.8336C97.0652 32.9194 96.0967 34.2481 95.4337 35.7332C94.7707 37.2183 94.428 38.8265 94.428 40.4529C94.428 42.0792 94.7707 43.6874 95.4337 45.1725C96.0967 46.6576 97.0652 47.9863 98.2761 49.0721C99.4869 50.1579 100.913 50.9764 102.461 51.4743C104.01 51.9721 105.645 52.1381 107.262 51.9615C104.423 51.6557 101.798 50.3114 99.8895 48.1871C97.9815 46.0628 96.9259 43.3082 96.9255 40.4529V40.4529Z" fill="#2F2E41"/>
<path d="M25.2773 58.0867C23.2792 56.0469 22.1054 53.3407 21.9815 50.488C21.8577 47.6353 22.7924 44.8374 24.6061 42.6321C23.3277 43.6374 22.2755 44.9009 21.518 46.3401C20.7604 47.7793 20.3147 49.362 20.2097 50.985C20.1047 52.6079 20.3429 54.2349 20.9086 55.7597C21.4744 57.2845 22.3551 58.6729 23.4933 59.8346C24.6316 60.9963 26.0018 61.9052 27.5148 62.5019C29.0277 63.0987 30.6494 63.37 32.2742 63.2981C33.899 63.2262 35.4905 62.8128 36.9448 62.0848C38.3992 61.3568 39.6838 60.3306 40.715 59.0729C38.4732 60.8413 35.6568 61.7188 32.8073 61.5368C29.9577 61.3547 27.2759 60.126 25.2773 58.0867V58.0867Z" fill="#2F2E41"/>
<path d="M73.771 58.6455C60.0699 58.6455 48.9629 65.1245 48.9629 73.1169C48.9629 76.693 51.1955 79.9613 54.8808 82.4862L59.6566 79.0258L58.3578 84.447C58.8967 84.6967 59.447 84.9384 60.0209 85.1618L67.1555 76.8381V87.0638C69.3432 87.4143 71.5554 87.5897 73.771 87.5883C87.4721 87.5883 98.5791 81.1092 98.5791 73.1169C98.5791 65.1245 87.4721 58.6455 73.771 58.6455Z" fill="#2F2E41"/>
<path d="M97.7524 45.4145C97.7524 45.4145 95.9544 53.6838 107.19 56.9916L97.7524 45.4145Z" fill="#2F2E41"/>
<path d="M48.963 46.9196C48.963 46.9196 53.0976 56.1647 40.6936 60.2993L48.963 46.9196Z" fill="#2F2E41"/>
<path d="M55.0946 99.8234C56.1378 99.5314 56.4153 97.2651 55.7144 94.7615C55.0135 92.2579 53.5997 90.4651 52.5565 90.7572C51.5134 91.0492 51.2359 93.3155 51.9368 95.8191C52.6376 98.3227 54.0515 100.115 55.0946 99.8234Z" fill="#D0CDE1"/>
<path d="M102.858 91.488C103.017 88.8931 102.27 86.7355 101.189 86.6689C100.108 86.6023 99.102 88.652 98.9422 91.2469C98.7824 93.8418 99.5293 95.9994 100.611 96.066C101.692 96.1325 102.698 94.0829 102.858 91.488Z" fill="#D0CDE1"/>
</g>
<defs>
<clipPath id="clip0">
<rect width="193" height="193" fill="white" transform="matrix(-1 0 0 1 287 67)"/>
</clipPath>
<clipPath id="clip1">
<rect width="160" height="160" fill="white"/>
</clipPath>
</defs>
</svg>
