<svg width="948" height="948" viewBox="0 0 948 948" fill="none" xmlns="http://www.w3.org/2000/svg">
<g filter="url(#filter0_d)">
<circle cx="474" cy="470" r="428" fill="white"/>
<circle cx="474" cy="470" r="424" stroke="white" stroke-width="8"/>
</g>
<path d="M849.725 473.267C849.783 521.114 840.597 568.521 822.672 612.883C822.628 612.983 822.595 613.071 822.551 613.17V613.181C810.502 642.886 794.653 670.903 775.399 696.532C771.685 701.491 767.854 706.347 763.905 711.1C762.462 712.841 760.996 714.571 759.531 716.279C751.982 725.04 744.041 733.433 735.707 741.459C733.767 743.332 731.806 745.183 729.822 747.012C729.359 747.442 728.897 747.861 728.434 748.291C718.726 757.161 708.556 765.511 697.965 773.305C690.857 778.561 683.563 783.553 676.08 788.28C674.438 789.327 672.786 790.355 671.122 791.366C668.234 793.129 665.322 794.851 662.383 796.534C658.548 798.738 654.666 800.872 650.736 802.936C649.149 803.785 647.551 804.6 645.953 805.415C643.617 806.617 641.27 807.774 638.901 808.909C638.493 809.107 638.085 809.305 637.678 809.493C636.135 810.242 634.57 810.969 633.005 811.697C612.627 821.096 591.433 828.616 569.688 834.165C569.566 834.198 569.456 834.22 569.335 834.253C567.913 834.617 566.481 834.97 565.048 835.311C563.979 835.576 562.9 835.829 561.82 836.072C561.686 836.115 561.55 836.148 561.412 836.171C559.197 836.689 556.982 837.185 554.745 837.636C553.489 837.901 552.233 838.165 550.977 838.419C550.216 838.584 549.445 838.727 548.684 838.871C547.726 839.058 546.778 839.234 545.819 839.422C545.29 839.532 544.762 839.62 544.222 839.708C543.009 839.928 541.797 840.149 540.596 840.358C538.547 840.711 536.475 841.052 534.414 841.361C532.916 841.592 531.428 841.813 529.929 842.022C528.166 842.276 526.403 842.507 524.629 842.727C524.144 842.804 523.659 842.86 523.174 842.915C522.546 842.992 521.918 843.069 521.29 843.146C520.023 843.3 518.756 843.444 517.477 843.576C516.816 843.653 516.166 843.719 515.505 843.785C514.249 843.917 512.992 844.039 511.736 844.149C510.116 844.303 508.496 844.435 506.866 844.568C504.882 844.722 502.91 844.865 500.915 844.986C499.637 845.063 498.359 845.141 497.069 845.207C493.785 845.383 490.502 845.504 487.196 845.592C485.554 845.636 483.901 845.669 482.248 845.692H482.215C480.573 845.714 478.92 845.725 477.267 845.725C460.517 845.732 443.784 844.612 427.184 842.375C415.007 840.744 403.026 838.533 391.238 835.741C390.765 835.631 390.291 835.521 389.828 835.399C388.638 835.124 387.459 834.826 386.28 834.529C385.233 834.264 384.197 833.989 383.15 833.713C356.171 826.693 330.072 816.641 305.353 803.751C305.232 803.685 305.099 803.619 304.978 803.553C304.262 803.178 303.557 802.815 302.851 802.429C301.298 801.614 299.751 800.784 298.212 799.939C289.452 795.123 280.915 789.973 272.603 784.489C270.465 783.09 268.349 781.669 266.256 780.225C265.584 779.762 264.922 779.299 264.261 778.836C263.567 778.352 262.873 777.867 262.19 777.382C260.371 776.093 258.564 774.789 256.768 773.47C249.33 768.004 242.112 762.271 235.115 756.269C210.313 735.028 188.396 710.633 169.924 683.705C163.477 674.317 157.461 664.627 151.874 654.636C120.912 599.208 104.707 536.756 104.81 473.267C104.81 267.567 271.567 100.809 477.267 100.809C682.968 100.809 849.725 267.567 849.725 473.267Z" fill="#D0CDE1"/>
<path opacity="0.2" d="M537.16 835.4C538.35 835.125 539.529 834.827 540.708 834.53C541.755 834.265 542.791 833.99 543.837 833.714C543.892 831.521 543.97 829.108 544.047 826.497C544.697 806.044 546.229 773.118 549.843 733.448C550.041 731.322 550.24 729.18 550.438 727.024C551.727 713.58 553.237 699.442 555.044 684.786C555.099 684.302 555.165 683.828 555.221 683.343C556.686 671.464 558.35 659.265 560.223 646.835C561.535 638.141 562.952 629.351 564.477 620.466C564.587 619.849 564.697 619.221 564.807 618.604C565.248 616.036 565.7 613.479 566.163 610.901C567.452 603.727 568.83 596.509 570.273 589.292C575.353 563.903 581.403 538.36 588.62 513.511C595.952 487.741 604.982 462.484 615.651 437.906C623.926 418.814 633.782 400.447 645.117 382.996C645.283 382.743 645.448 382.501 645.613 382.247C660.104 360.418 676.666 341.894 695.575 328.042L691.652 322.687C673.536 335.965 656.919 353.633 641.8 375.691C641.723 375.801 641.657 375.9 641.58 376.01C630.211 392.869 620.288 410.659 611.916 429.19C600.705 453.977 591.25 479.52 583.618 505.632C576.389 529.897 569.906 556.186 564.168 584.498C562.152 594.471 560.227 604.69 558.394 615.154C558.086 616.94 557.777 618.725 557.469 620.521C557.469 620.543 557.457 620.576 557.457 620.598C556.984 623.353 556.532 626.108 556.069 628.896C554.923 635.915 553.843 642.879 552.829 649.789C551.265 660.433 549.85 670.894 548.587 681.172C548.168 684.566 547.764 687.934 547.375 691.277C546.824 695.993 546.302 700.647 545.81 705.238C545.116 711.63 544.48 717.885 543.904 724.005L543.738 725.691C543.65 726.66 543.562 727.63 543.474 728.589C539 776.843 537.6 815.819 537.16 835.4Z" fill="black"/>
<path opacity="0.2" d="M621.635 803.753C621.757 803.687 621.889 803.621 622.01 803.554C624.28 802.375 626.528 801.174 628.776 799.94C629.514 791.147 630.506 781.482 631.806 771.322C632.082 769.229 632.357 767.102 632.666 764.964C632.82 763.818 632.985 762.661 633.151 761.493C634.451 752.545 635.994 743.311 637.845 734.033C645.371 696.17 657.867 657.469 678.617 633.579C679.73 632.29 680.865 631.056 682.044 629.855C684.966 626.818 688.14 624.035 691.532 621.535L687.609 616.191C682.874 619.692 678.516 623.677 674.606 628.081C673.229 629.612 671.884 631.206 670.573 632.863C651.476 656.896 639.553 692.478 632.126 727.708C630.187 736.898 628.556 746.077 627.167 755.014C626.815 757.35 626.477 759.664 626.153 761.956C624.005 777.097 622.583 791.4 621.635 803.753Z" fill="black"/>
<path opacity="0.2" d="M732.632 327.888C750.944 327.888 765.788 313.044 765.788 294.732C765.788 276.421 750.944 261.576 732.632 261.576C714.321 261.576 699.476 276.421 699.476 294.732C699.476 313.044 714.321 327.888 732.632 327.888Z" fill="black"/>
<path opacity="0.2" d="M721.955 613.302C740.267 613.302 755.111 598.457 755.111 580.146C755.111 561.834 740.267 546.99 721.955 546.99C703.644 546.99 688.799 561.834 688.799 580.146C688.799 598.457 703.644 613.302 721.955 613.302Z" fill="black"/>
<path opacity="0.2" d="M601.001 350.425C608.032 390.092 592.511 426.01 592.511 426.01C592.511 426.01 565.591 397.614 558.56 357.947C551.529 318.28 567.05 282.362 567.05 282.362C567.05 282.362 593.97 310.758 601.001 350.425Z" fill="black"/>
<path opacity="0.2" d="M711.194 444.585C673.359 458.42 635.339 449.542 635.339 449.542C635.339 449.542 658.663 418.233 696.499 404.398C734.334 390.563 772.353 399.441 772.353 399.441C772.353 399.441 749.029 430.75 711.194 444.585Z" fill="black"/>
<path opacity="0.2" d="M717.609 697.33C691.089 707.027 664.403 700.701 664.403 700.701C664.403 700.701 680.714 678.653 707.233 668.955C733.753 659.258 760.439 665.584 760.439 665.584C760.439 665.584 744.128 687.632 717.609 697.33Z" fill="black"/>
<path d="M589.624 691.75L590.969 692.445C590.837 693.877 590.517 694.759 589.624 691.75Z" fill="#2F2E41"/>
<path d="M591.397 692.213C591.408 692.368 591.43 692.533 591.441 692.687L590.967 692.445C590.978 692.301 590.989 692.147 591.011 691.993C591.122 690.064 590.989 687.783 591.397 692.213Z" fill="#2F2E41"/>
<path d="M448.268 639.496C548.204 639.496 629.218 558.482 629.218 458.546C629.218 358.611 548.204 277.597 448.268 277.597C348.333 277.597 267.319 358.611 267.319 458.546C267.319 558.482 348.333 639.496 448.268 639.496Z" fill="#2F2E41"/>
<path d="M463.165 632.121C523.685 632.121 572.747 583.059 572.747 522.538C572.747 462.018 523.685 412.956 463.165 412.956C402.644 412.956 353.582 462.018 353.582 522.538C353.582 583.059 402.644 632.121 463.165 632.121Z" fill="#FBBEBE"/>
<path d="M713.382 732.566L713.25 732.6L687.762 738.715L634.692 751.454L627.453 753.195L546.746 772.556L539.892 774.209L344.087 821.196C330.851 816.133 317.918 810.308 305.354 803.752C305.233 803.686 305.101 803.62 304.979 803.554C304.263 803.179 303.558 802.816 302.853 802.43C301.299 801.614 299.752 800.784 298.213 799.939C289.453 795.124 280.916 789.974 272.604 784.49C270.466 783.091 268.351 781.669 266.257 780.226C265.585 779.763 264.924 779.3 264.262 778.837C263.568 778.352 262.874 777.867 262.191 777.383C260.373 776.093 258.565 774.789 256.769 773.471C275.789 738.903 321.079 715.927 366.369 703.354C400.551 693.855 408.066 662.637 407.416 634.857C407.251 628.52 406.714 622.199 405.807 615.926C404.427 605.941 402.23 596.086 399.24 586.459L508.828 590.118L520.134 616.168C519.825 619.029 519.725 621.909 519.837 624.785C520.696 646.152 533.886 659.97 550.162 668.885C552.278 670.042 554.449 671.122 556.653 672.125C583.342 684.257 614.758 685.084 614.758 685.084C624.325 684.026 633.988 684.208 643.508 685.624C645.822 685.976 648.07 686.399 650.252 686.891C662.991 689.738 675.025 695.123 685.635 702.726C689.688 705.609 693.522 708.787 697.107 712.236C703.478 718.198 708.959 725.045 713.382 732.566Z" fill="#FBBEBE"/>
<path d="M729.824 747.013C729.362 747.443 728.899 747.862 728.436 748.291C718.729 757.162 708.558 765.512 697.967 773.306C690.86 778.562 683.565 783.554 676.082 788.281C674.441 789.328 672.788 790.356 671.124 791.366C668.237 793.13 665.324 794.852 662.385 796.535C658.55 798.738 654.668 800.873 650.738 802.937C649.151 803.785 647.553 804.601 645.955 805.416C643.619 806.617 641.272 807.774 638.903 808.909C638.495 809.108 638.087 809.306 637.68 809.493L633.018 805.626L687.763 738.716L698.772 725.261C698.772 725.261 703.168 725.261 713.251 732.6C718.824 736.747 724.09 741.292 729.009 746.198C729.273 746.473 729.549 746.738 729.824 747.013Z" fill="#FBBEBE"/>
<path d="M729.053 746.264C728.905 746.956 728.698 747.634 728.436 748.291C718.728 757.162 708.558 765.511 697.967 773.305C688.778 776.618 679.245 778.884 669.548 780.06C669.548 780.06 670.374 784.204 671.124 791.366C668.236 793.129 665.324 794.852 662.385 796.534C658.55 798.738 654.668 800.872 650.738 802.937C649.151 803.785 647.553 804.601 645.955 805.416C643.619 806.617 641.272 807.774 638.903 808.909C638.495 809.108 638.087 809.306 637.68 809.493C636.137 810.243 634.572 810.97 633.007 811.697C612.628 821.096 591.435 828.617 569.689 834.166C569.568 834.199 569.458 834.221 569.337 834.254C567.915 834.618 566.483 834.97 565.05 835.312C563.981 835.576 562.901 835.83 561.822 836.072C561.688 836.116 561.552 836.149 561.414 836.171C559.199 836.689 556.984 837.185 554.747 837.637C553.491 837.901 552.235 838.166 550.978 838.419C550.218 838.585 549.447 838.728 548.686 838.871C547.728 839.059 546.78 839.235 545.821 839.422C545.292 839.532 544.763 839.62 544.224 839.709C543.011 839.929 541.799 840.149 540.598 840.359C538.548 840.711 536.477 841.053 534.416 841.362C532.918 841.593 531.43 841.813 529.931 842.023C528.168 842.276 526.405 842.508 524.631 842.728C524.146 842.805 523.661 842.86 523.176 842.915C522.548 842.992 521.92 843.069 521.292 843.147C520.025 843.301 518.758 843.444 517.479 843.576C516.818 843.654 516.168 843.72 515.507 843.786C514.251 843.918 512.994 844.039 511.738 844.149C510.118 844.304 508.498 844.436 506.868 844.568C504.884 844.723 502.912 844.866 500.917 844.987C499.639 845.064 498.36 845.141 497.071 845.207C493.787 845.384 490.504 845.505 487.198 845.593C485.556 845.637 483.903 845.67 482.25 845.692H482.217C480.575 845.714 478.922 845.725 477.269 845.725C460.519 845.732 443.786 844.613 427.186 842.375C415.009 840.744 403.027 838.533 391.24 835.742C390.767 835.631 390.293 835.521 389.83 835.4C388.64 835.125 387.461 834.827 386.282 834.53C385.235 834.265 384.199 833.99 383.152 833.714C356.173 826.693 330.074 816.642 305.355 803.752C305.233 803.686 305.101 803.62 304.98 803.554C304.264 803.179 303.559 802.816 302.853 802.43C363.339 788.336 458.922 766.11 541.865 747.068C544.19 746.539 546.501 746.01 548.797 745.481C579.431 738.451 608.125 731.905 632.401 726.429C634.914 725.867 637.375 725.316 639.784 724.776C665.867 718.913 686.121 714.461 697.107 712.236C700.069 711.559 703.063 711.033 706.077 710.66L729.009 746.198L729.053 746.264Z" fill="#2F2E41"/>
<path d="M282.719 381.546C312.488 381.546 336.619 357.415 336.619 327.647C336.619 297.878 312.488 273.747 282.719 273.747C252.951 273.747 228.82 297.878 228.82 327.647C228.82 357.415 252.951 381.546 282.719 381.546Z" fill="#2F2E41"/>
<path d="M613.818 366.147C643.586 366.147 667.718 342.015 667.718 312.247C667.718 282.479 643.586 258.347 613.818 258.347C584.05 258.347 559.918 282.479 559.918 312.247C559.918 342.015 584.05 366.147 613.818 366.147Z" fill="#2F2E41"/>
<path d="M556.07 289.147C556.072 275.854 560.986 263.029 569.87 253.139C578.753 243.249 590.977 236.99 604.195 235.566C596.668 234.744 589.052 235.517 581.843 237.835C574.634 240.153 567.995 243.963 562.358 249.019C556.72 254.074 552.211 260.26 549.124 267.174C546.038 274.088 544.442 281.575 544.442 289.147C544.442 296.719 546.038 304.206 549.124 311.121C552.211 318.035 556.72 324.221 562.358 329.276C567.995 334.332 574.634 338.142 581.843 340.46C589.052 342.778 596.668 343.551 604.195 342.729C590.977 341.305 578.753 335.046 569.87 325.156C560.986 315.266 556.072 302.441 556.07 289.147V289.147Z" fill="#2F2E41"/>
<path d="M222.495 371.246C213.193 361.749 207.728 349.149 207.151 335.868C206.575 322.587 210.927 309.561 219.371 299.293C213.419 303.974 208.52 309.856 204.993 316.557C201.466 323.257 199.391 330.626 198.902 338.182C198.413 345.738 199.522 353.312 202.156 360.411C204.79 367.51 208.891 373.975 214.19 379.383C219.489 384.792 225.869 389.023 232.913 391.802C239.956 394.58 247.507 395.843 255.071 395.508C262.636 395.174 270.045 393.249 276.816 389.86C283.587 386.47 289.568 381.692 294.369 375.837C283.932 384.07 270.82 388.156 257.553 387.308C244.286 386.461 231.801 380.74 222.495 371.246V371.246Z" fill="#2F2E41"/>
<path d="M448.269 373.847C384.48 373.847 332.769 404.012 332.769 441.222C332.769 457.871 343.163 473.088 360.321 484.843L382.556 468.732L376.509 493.972C379.018 495.135 381.58 496.26 384.252 497.3L417.469 458.547V506.155C427.654 507.787 437.954 508.603 448.269 508.597C512.057 508.597 563.768 478.432 563.768 441.222C563.768 404.012 512.057 373.847 448.269 373.847Z" fill="#2F2E41"/>
<path d="M559.919 312.247C559.919 312.247 551.548 350.747 603.858 366.147L559.919 312.247Z" fill="#2F2E41"/>
<path d="M332.77 319.255C332.77 319.255 352.02 362.297 294.27 381.547L332.77 319.255Z" fill="#2F2E41"/>
<path d="M361.317 565.56C366.173 564.201 367.465 553.649 364.202 541.993C360.939 530.337 354.357 521.99 349.5 523.35C344.643 524.71 343.351 535.261 346.614 546.917C349.878 558.573 356.46 566.92 361.317 565.56Z" fill="#FBBEBE"/>
<path d="M583.689 526.753C584.433 514.672 580.955 504.627 575.921 504.317C570.887 504.007 566.204 513.549 565.46 525.63C564.715 537.712 568.193 547.757 573.227 548.067C578.261 548.377 582.945 538.834 583.689 526.753Z" fill="#FBBEBE"/>
<defs>
<filter id="filter0_d" x="0" y="0" width="948" height="948" filterUnits="userSpaceOnUse" color-interpolation-filters="sRGB">
<feFlood flood-opacity="0" result="BackgroundImageFix"/>
<feColorMatrix in="SourceAlpha" type="matrix" values="0 0 0 0 0 0 0 0 0 0 0 0 0 0 0 0 0 0 127 0"/>
<feMorphology radius="8" operator="erode" in="SourceAlpha" result="effect1_dropShadow"/>
<feOffset dy="4"/>
<feGaussianBlur stdDeviation="27"/>
<feColorMatrix type="matrix" values="0 0 0 0 0 0 0 0 0 0 0 0 0 0 0 0 0 0 0.25 0"/>
<feBlend mode="normal" in2="BackgroundImageFix" result="effect1_dropShadow"/>
<feBlend mode="normal" in="SourceGraphic" in2="effect1_dropShadow" result="shape"/>
</filter>
</defs>
</svg>
