<svg width="485" height="485" viewBox="0 0 485 485" fill="none" xmlns="http://www.w3.org/2000/svg">
<g filter="url(#filter0_d)">
<circle cx="242.5" cy="238.5" r="196.5" fill="white"/>
<circle cx="242.5" cy="238.5" r="192.5" stroke="white" stroke-width="8"/>
</g>
<path d="M415 240C415.027 261.967 410.809 283.732 402.58 304.1C402.559 304.145 402.544 304.186 402.524 304.231V304.236C396.992 317.874 389.716 330.737 380.876 342.504C379.171 344.78 377.412 347.01 375.599 349.192C374.936 349.991 374.264 350.786 373.591 351.57C370.125 355.592 366.479 359.445 362.653 363.13C361.762 363.99 360.862 364.84 359.951 365.68C359.739 365.877 359.526 366.069 359.314 366.267C354.857 370.339 350.188 374.173 345.325 377.751C342.062 380.164 338.713 382.456 335.278 384.626C334.524 385.107 333.765 385.579 333.001 386.043C331.675 386.852 330.338 387.643 328.989 388.416C327.228 389.427 325.446 390.407 323.641 391.355C322.913 391.745 322.179 392.119 321.446 392.493C320.373 393.045 319.296 393.576 318.208 394.097C318.021 394.188 317.834 394.279 317.646 394.365C316.938 394.709 316.22 395.043 315.501 395.377C306.145 399.692 296.415 403.145 286.431 405.693C286.376 405.708 286.325 405.718 286.269 405.733C285.617 405.9 284.959 406.062 284.301 406.219C283.811 406.34 283.315 406.457 282.819 406.568C282.758 406.588 282.695 406.603 282.632 406.613C281.615 406.851 280.598 407.079 279.571 407.286C278.994 407.408 278.418 407.529 277.841 407.646C277.492 407.721 277.138 407.787 276.789 407.853C276.348 407.939 275.913 408.02 275.473 408.106C275.23 408.156 274.987 408.197 274.74 408.237C274.183 408.339 273.627 408.44 273.075 408.536C272.134 408.698 271.183 408.855 270.237 408.996C269.549 409.103 268.866 409.204 268.178 409.3C267.368 409.416 266.559 409.522 265.744 409.624C265.522 409.659 265.299 409.684 265.077 409.71C264.788 409.745 264.5 409.78 264.211 409.816C263.63 409.887 263.048 409.952 262.461 410.013C262.157 410.049 261.859 410.079 261.555 410.109C260.979 410.17 260.402 410.226 259.825 410.276C259.081 410.347 258.338 410.408 257.589 410.469C256.678 410.539 255.773 410.605 254.857 410.661C254.27 410.696 253.683 410.732 253.091 410.762C251.584 410.843 250.076 410.899 248.558 410.939C247.805 410.959 247.046 410.974 246.287 410.985H246.272C245.518 410.995 244.759 411 244 411C236.31 411.003 228.628 410.489 221.006 409.462C215.416 408.713 209.915 407.698 204.503 406.416C204.286 406.366 204.068 406.315 203.856 406.259C203.309 406.133 202.768 405.996 202.227 405.86C201.746 405.738 201.27 405.612 200.79 405.485C188.403 402.262 176.421 397.647 165.072 391.729C165.016 391.699 164.956 391.669 164.9 391.638C164.571 391.466 164.247 391.299 163.924 391.122C163.21 390.748 162.5 390.367 161.794 389.979C157.772 387.768 153.852 385.404 150.036 382.886C149.055 382.243 148.083 381.591 147.122 380.928C146.813 380.716 146.51 380.503 146.206 380.291C145.888 380.068 145.569 379.845 145.255 379.623C144.421 379.031 143.591 378.432 142.766 377.827C139.351 375.317 136.037 372.685 132.825 369.929C121.438 360.177 111.376 348.977 102.895 336.615C99.9353 332.304 97.1729 327.856 94.608 323.269C80.3932 297.821 72.953 269.149 73.0003 240C73.0003 145.56 149.561 69 244 69C338.44 69 415 145.56 415 240Z" fill="#B9B9B9"/>
<path opacity="0.2" d="M271.497 406.26C272.044 406.133 272.585 405.997 273.126 405.86C273.607 405.739 274.083 405.612 274.563 405.486C274.588 404.479 274.624 403.371 274.659 402.172C274.958 392.782 275.661 377.665 277.32 359.452C277.411 358.476 277.503 357.493 277.594 356.503C278.186 350.331 278.879 343.84 279.708 337.111C279.734 336.888 279.764 336.671 279.789 336.448C280.462 330.994 281.226 325.394 282.086 319.687C282.688 315.695 283.339 311.66 284.039 307.581C284.09 307.297 284.14 307.009 284.191 306.726C284.393 305.547 284.601 304.373 284.813 303.189C285.405 299.896 286.037 296.582 286.7 293.268C289.032 281.612 291.81 269.885 295.124 258.476C298.49 246.645 302.636 235.049 307.534 223.765C311.333 215 315.858 206.567 321.062 198.556C321.138 198.439 321.214 198.328 321.29 198.211C327.942 188.189 335.546 179.685 344.228 173.325L342.427 170.867C334.11 176.963 326.48 185.075 319.539 195.201C319.504 195.252 319.473 195.297 319.438 195.348C314.218 203.088 309.662 211.256 305.819 219.764C300.672 231.144 296.331 242.871 292.827 254.859C289.508 265.999 286.531 278.069 283.897 291.067C282.972 295.646 282.088 300.338 281.246 305.142C281.105 305.962 280.963 306.781 280.821 307.606C280.821 307.616 280.816 307.631 280.816 307.641C280.599 308.906 280.391 310.171 280.179 311.451C279.653 314.674 279.157 317.871 278.691 321.043C277.973 325.93 277.324 330.733 276.744 335.452C276.551 337.01 276.366 338.556 276.187 340.091C275.934 342.256 275.695 344.393 275.469 346.501C275.15 349.435 274.858 352.307 274.594 355.117L274.518 355.891C274.477 356.336 274.437 356.781 274.396 357.221C272.342 379.375 271.7 397.27 271.497 406.26Z" fill="black"/>
<path opacity="0.2" d="M310.281 391.73C310.337 391.7 310.398 391.669 310.453 391.639C311.495 391.098 312.527 390.546 313.56 389.98C313.898 385.942 314.354 381.505 314.951 376.841C315.077 375.88 315.204 374.903 315.345 373.922C315.416 373.396 315.492 372.864 315.568 372.328C316.165 368.22 316.873 363.98 317.723 359.721C321.179 342.337 326.916 324.57 336.442 313.601C336.953 313.009 337.474 312.443 338.016 311.891C339.357 310.497 340.814 309.219 342.371 308.072L340.57 305.618C338.397 307.226 336.396 309.055 334.601 311.077C333.968 311.78 333.351 312.512 332.749 313.272C323.981 324.306 318.507 340.643 315.098 356.817C314.207 361.036 313.458 365.25 312.821 369.353C312.659 370.426 312.504 371.488 312.355 372.541C311.369 379.492 310.716 386.059 310.281 391.73Z" fill="black"/>
<path opacity="0.2" d="M361.241 173.255C369.648 173.255 376.464 166.44 376.464 158.033C376.464 149.626 369.648 142.81 361.241 142.81C352.834 142.81 346.019 149.626 346.019 158.033C346.019 166.44 352.834 173.255 361.241 173.255Z" fill="black"/>
<path opacity="0.2" d="M356.339 304.292C364.746 304.292 371.562 297.476 371.562 289.069C371.562 280.662 364.746 273.847 356.339 273.847C347.932 273.847 341.117 280.662 341.117 289.069C341.117 297.476 347.932 304.292 356.339 304.292Z" fill="black"/>
<path opacity="0.2" d="M300.808 183.602C304.036 201.813 296.91 218.303 296.91 218.303C296.91 218.303 284.55 205.267 281.322 187.055C278.094 168.844 285.22 152.353 285.22 152.353C285.22 152.353 297.58 165.39 300.808 183.602Z" fill="black"/>
<path opacity="0.2" d="M351.399 226.832C334.028 233.184 316.573 229.108 316.573 229.108C316.573 229.108 327.281 214.733 344.652 208.381C362.022 202.029 379.478 206.106 379.478 206.106C379.478 206.106 368.769 220.48 351.399 226.832Z" fill="black"/>
<path opacity="0.2" d="M354.344 342.87C342.168 347.322 329.917 344.417 329.917 344.417C329.917 344.417 337.405 334.295 349.58 329.843C361.756 325.391 374.008 328.295 374.008 328.295C374.008 328.295 366.519 338.418 354.344 342.87Z" fill="black"/>
<path d="M295.585 340.308L296.202 340.627C296.141 341.285 295.994 341.69 295.585 340.308Z" fill="#2F2E41"/>
<path d="M296.398 340.521C296.404 340.592 296.414 340.668 296.419 340.738L296.201 340.627C296.206 340.561 296.211 340.491 296.221 340.42C296.272 339.534 296.211 338.487 296.398 340.521Z" fill="#2F2E41"/>
<path fill-rule="evenodd" clip-rule="evenodd" d="M373.791 354.205C370.49 357.998 367.028 361.64 363.403 365.13C362.513 365.99 361.612 366.84 360.702 367.68C360.489 367.877 360.277 368.069 360.064 368.267C355.607 372.339 350.938 376.173 346.076 379.751C342.812 382.164 339.463 384.456 336.028 386.626C335.274 387.107 334.515 387.579 333.751 388.043C332.426 388.852 331.089 389.643 329.74 390.416C327.979 391.427 326.196 392.407 324.392 393.355C323.663 393.745 322.93 394.119 322.196 394.493C321.124 395.045 320.046 395.576 318.958 396.097C318.771 396.188 318.584 396.279 318.397 396.365C317.689 396.709 316.97 397.043 316.252 397.377C306.896 401.692 297.165 405.145 287.182 407.693C287.126 407.708 287.076 407.718 287.02 407.733C286.367 407.9 285.71 408.062 285.052 408.219C284.801 408.281 284.549 408.342 284.296 408.401C284.054 408.458 283.812 408.513 283.57 408.568C283.508 408.588 283.446 408.603 283.382 408.614C282.365 408.851 281.349 409.079 280.322 409.286C279.745 409.408 279.168 409.529 278.591 409.646C278.432 409.68 278.271 409.713 278.111 409.744C277.92 409.781 277.729 409.817 277.539 409.853L277.204 409.918C276.877 409.98 276.552 410.042 276.224 410.106C275.981 410.156 275.738 410.197 275.49 410.237C274.934 410.339 274.377 410.44 273.826 410.536C272.885 410.698 271.933 410.855 270.987 410.996C270.752 411.033 270.518 411.068 270.284 411.103C269.832 411.171 269.381 411.237 268.928 411.3C268.119 411.416 267.309 411.522 266.495 411.624C266.275 411.659 266.054 411.684 265.834 411.709L265.827 411.71L264.962 411.816C264.38 411.887 263.798 411.953 263.211 412.013C263.05 412.032 262.891 412.049 262.731 412.066C262.59 412.081 262.448 412.095 262.306 412.109C261.729 412.17 261.152 412.226 260.576 412.276C259.832 412.347 259.088 412.408 258.339 412.469C257.793 412.511 257.248 412.552 256.702 412.59C256.338 412.615 255.974 412.639 255.608 412.661C255.021 412.696 254.434 412.732 253.842 412.762C252.334 412.843 250.827 412.899 249.309 412.939C248.555 412.959 247.796 412.974 247.037 412.985H247.022C246.268 412.995 245.509 413 244.75 413C237.06 413.003 229.378 412.489 221.757 411.462C216.166 410.713 210.665 409.698 205.254 408.416C205.036 408.366 204.819 408.315 204.606 408.259C204.427 408.218 204.248 408.175 204.07 408.132C203.705 408.043 203.341 407.951 202.977 407.86C202.585 407.761 202.197 407.658 201.807 407.555L201.54 407.485C189.154 404.262 177.171 399.647 165.823 393.729C165.767 393.699 165.706 393.669 165.651 393.638L165.324 393.468C165.106 393.354 164.89 393.24 164.674 393.122C163.961 392.748 163.251 392.367 162.544 391.979C158.522 389.768 154.603 387.404 150.787 384.886C149.805 384.243 148.834 383.591 147.873 382.928C147.723 382.825 147.575 382.723 147.428 382.62C147.271 382.51 147.114 382.4 146.957 382.291C146.638 382.068 146.319 381.845 146.006 381.623C145.171 381.031 144.341 380.432 143.517 379.827C140.102 377.317 136.788 374.685 133.575 371.929C126.913 366.224 120.704 360.022 115 353.382C131.182 308.111 182.923 275 244.25 275C305.949 275 357.945 308.513 373.791 354.205Z" fill="white" fill-opacity="0.88"/>
<circle cx="244.25" cy="201.5" r="65.5" fill="white" fill-opacity="0.88"/>
<defs>
<filter id="filter0_d" x="0" y="0" width="485" height="485" filterUnits="userSpaceOnUse" color-interpolation-filters="sRGB">
<feFlood flood-opacity="0" result="BackgroundImageFix"/>
<feColorMatrix in="SourceAlpha" type="matrix" values="0 0 0 0 0 0 0 0 0 0 0 0 0 0 0 0 0 0 127 0"/>
<feMorphology radius="8" operator="erode" in="SourceAlpha" result="effect1_dropShadow"/>
<feOffset dy="4"/>
<feGaussianBlur stdDeviation="27"/>
<feColorMatrix type="matrix" values="0 0 0 0 0 0 0 0 0 0 0 0 0 0 0 0 0 0 0.25 0"/>
<feBlend mode="normal" in2="BackgroundImageFix" result="effect1_dropShadow"/>
<feBlend mode="normal" in="SourceGraphic" in2="effect1_dropShadow" result="shape"/>
</filter>
</defs>
</svg>
